# xmcd
#
# Track frame offsets:
# 150
# 27918
# 46737
# 62342
# 78135
# 98936
# 121303
# 145813
# 171895
# 192505
#
# Disc length: 2861 seconds
#
# Revision: 2
# Processed by: cddbd v1.4PL0 Copyright (c) Steve Scherf et al.
# Submitted via: Axialis_AX_CDPlayer 2.6
#
DISCID=7b0b2b0a
DTITLE=Anders Osbourne - Break the chain
DYEAR=1900
DGENRE=
TTITLE0=I'm Back In
TTITLE1=Time
TTITLE2=Right On The Money
TTITLE3=Give It To Me Two Times
TTITLE4=Break The Chain
TTITLE5=Having A Good Time Too
TTITLE6=Now Not Tomorrow
TTITLE7=Real World
TTITLE8=Stoned Me
TTITLE9=Heaven By Seven
EXTD=
EXTT0=
EXTT1=
EXTT2=
EXTT3=
EXTT4=
EXTT5=
EXTT6=
EXTT7=
EXTT8=
EXTT9=
PLAYORDER=
